<mxfile host="app.diagrams.net" modified="2023-05-06T14:39:02.117Z" agent="Mozilla/5.0 (X11; Linux x86_64; rv:108.0) Gecko/20100101 Firefox/108.0" etag="c8AHZrO4YsF-0zbvmL3v" version="21.2.9" type="device">
  <diagram id="CNQqmsxfFxIgaWTBAwi9" name="Page-1">
    <mxGraphModel dx="2164" dy="729" grid="1" gridSize="10" guides="1" tooltips="1" connect="1" arrows="1" fold="1" page="1" pageScale="1" pageWidth="827" pageHeight="1169" math="0" shadow="0">
      <root>
        <mxCell id="0" />
        <mxCell id="1" parent="0" />
        <mxCell id="Zatl_ybfSAwXHSOVHGpd-10" value="" style="endArrow=none;html=1;rounded=0;align=center;verticalAlign=top;endFill=0;labelBackgroundColor=none;entryX=0.5;entryY=0;entryDx=0;entryDy=0;exitX=0.493;exitY=0.962;exitDx=0;exitDy=0;exitPerimeter=0;fontColor=#0000FF;strokeColor=#0000FF;" parent="1" source="78LwuEahcBiL7WYBxUG0-4" target="78LwuEahcBiL7WYBxUG0-5" edge="1">
          <mxGeometry relative="1" as="geometry">
            <mxPoint x="340" y="290" as="sourcePoint" />
            <mxPoint x="540.0000000000001" y="290" as="targetPoint" />
          </mxGeometry>
        </mxCell>
        <mxCell id="Zatl_ybfSAwXHSOVHGpd-11" value="0..n" style="resizable=0;html=1;align=left;verticalAlign=top;labelBackgroundColor=none;fontColor=#0000FF;strokeColor=#0000FF;" parent="Zatl_ybfSAwXHSOVHGpd-10" connectable="0" vertex="1">
          <mxGeometry x="-1" relative="1" as="geometry">
            <mxPoint x="-29" as="offset" />
          </mxGeometry>
        </mxCell>
        <mxCell id="Zatl_ybfSAwXHSOVHGpd-12" value="fa riferimento a&amp;nbsp;&lt;span style=&quot;font-family: arial, sans-serif; font-size: 16px; text-align: left;&quot;&gt;▼&lt;/span&gt;" style="resizable=0;html=1;align=right;verticalAlign=bottom;labelBackgroundColor=none;fontColor=#0000FF;" parent="Zatl_ybfSAwXHSOVHGpd-10" connectable="0" vertex="1">
          <mxGeometry x="1" relative="1" as="geometry">
            <mxPoint x="110" y="-30" as="offset" />
          </mxGeometry>
        </mxCell>
        <mxCell id="Zatl_ybfSAwXHSOVHGpd-13" value="0..1" style="resizable=0;html=1;align=right;verticalAlign=top;labelBackgroundColor=none;" parent="Zatl_ybfSAwXHSOVHGpd-10" connectable="0" vertex="1">
          <mxGeometry x="1" relative="1" as="geometry" />
        </mxCell>
        <mxCell id="78LwuEahcBiL7WYBxUG0-1" value="Sezione" style="swimlane;fontStyle=0;childLayout=stackLayout;horizontal=1;startSize=26;horizontalStack=0;resizeParent=1;resizeParentMax=0;resizeLast=0;collapsible=1;marginBottom=0;labelBackgroundColor=none;fontColor=#0000FF;strokeColor=#0000FF;" parent="1" vertex="1">
          <mxGeometry x="470" y="80" width="140" height="52" as="geometry" />
        </mxCell>
        <mxCell id="78LwuEahcBiL7WYBxUG0-2" value="nome: testo" style="text;strokeColor=#0000FF;fillColor=none;align=left;verticalAlign=top;spacingLeft=4;spacingRight=4;overflow=hidden;rotatable=0;points=[[0,0.5],[1,0.5]];portConstraint=eastwest;labelBackgroundColor=none;fontColor=#0000FF;" parent="78LwuEahcBiL7WYBxUG0-1" vertex="1">
          <mxGeometry y="26" width="140" height="26" as="geometry" />
        </mxCell>
        <mxCell id="78LwuEahcBiL7WYBxUG0-3" value="Voce" style="swimlane;fontStyle=0;childLayout=stackLayout;horizontal=1;startSize=26;horizontalStack=0;resizeParent=1;resizeParentMax=0;resizeLast=0;collapsible=1;marginBottom=0;labelBackgroundColor=none;fontColor=#0000FF;strokeColor=#0000FF;" parent="1" vertex="1">
          <mxGeometry x="470" y="220" width="140" height="52" as="geometry" />
        </mxCell>
        <mxCell id="78LwuEahcBiL7WYBxUG0-4" value="descrizione: testo" style="text;strokeColor=#0000FF;fillColor=none;align=left;verticalAlign=top;spacingLeft=4;spacingRight=4;overflow=hidden;rotatable=0;points=[[0,0.5],[1,0.5]];portConstraint=eastwest;labelBackgroundColor=none;fontColor=#0000FF;" parent="78LwuEahcBiL7WYBxUG0-3" vertex="1">
          <mxGeometry y="26" width="140" height="26" as="geometry" />
        </mxCell>
        <mxCell id="78LwuEahcBiL7WYBxUG0-5" value="Ricetta" style="swimlane;fontStyle=0;childLayout=stackLayout;horizontal=1;startSize=26;horizontalStack=0;resizeParent=1;resizeParentMax=0;resizeLast=0;collapsible=1;marginBottom=0;labelBackgroundColor=none;" parent="1" vertex="1">
          <mxGeometry x="470" y="360" width="140" height="52" as="geometry" />
        </mxCell>
        <mxCell id="78LwuEahcBiL7WYBxUG0-6" value="descrizione: testo" style="text;strokeColor=none;fillColor=none;align=left;verticalAlign=top;spacingLeft=4;spacingRight=4;overflow=hidden;rotatable=0;points=[[0,0.5],[1,0.5]];portConstraint=eastwest;labelBackgroundColor=none;fontColor=#000000;" parent="78LwuEahcBiL7WYBxUG0-5" vertex="1">
          <mxGeometry y="26" width="140" height="26" as="geometry" />
        </mxCell>
        <mxCell id="78LwuEahcBiL7WYBxUG0-7" value="Ricettario" style="swimlane;fontStyle=0;childLayout=stackLayout;horizontal=1;startSize=26;horizontalStack=0;resizeParent=1;resizeParentMax=0;resizeLast=0;collapsible=1;marginBottom=0;labelBackgroundColor=none;" parent="1" vertex="1">
          <mxGeometry x="-60" y="585" width="140" height="52" as="geometry" />
        </mxCell>
        <mxCell id="78LwuEahcBiL7WYBxUG0-8" value="descrizione: testo" style="text;strokeColor=none;fillColor=none;align=left;verticalAlign=top;spacingLeft=4;spacingRight=4;overflow=hidden;rotatable=0;points=[[0,0.5],[1,0.5]];portConstraint=eastwest;labelBackgroundColor=none;fontColor=#000000;" parent="78LwuEahcBiL7WYBxUG0-7" vertex="1">
          <mxGeometry y="26" width="140" height="26" as="geometry" />
        </mxCell>
        <mxCell id="78LwuEahcBiL7WYBxUG0-9" value="Menù" style="swimlane;fontStyle=0;childLayout=stackLayout;horizontal=1;startSize=26;horizontalStack=0;resizeParent=1;resizeParentMax=0;resizeLast=0;collapsible=1;marginBottom=0;labelBackgroundColor=none;fontColor=#0000FF;strokeColor=#0000FF;" parent="1" vertex="1">
          <mxGeometry x="140" y="80" width="140" height="180" as="geometry" />
        </mxCell>
        <mxCell id="78LwuEahcBiL7WYBxUG0-10" value="titolo: testo&#xa;pubblicato: sì/no&#xa;richiede cuoco: sì/no&#xa;piatti caldi: sì/no&#xa;richiede cucina: sì/no&#xa;buffet: sì/no&#xa;finger food: sì/no" style="text;strokeColor=#0000FF;fillColor=none;align=left;verticalAlign=top;spacingLeft=4;spacingRight=4;overflow=hidden;rotatable=0;points=[[0,0.5],[1,0.5]];portConstraint=eastwest;labelBackgroundColor=none;fontColor=#0000FF;" parent="78LwuEahcBiL7WYBxUG0-9" vertex="1">
          <mxGeometry y="26" width="140" height="154" as="geometry" />
        </mxCell>
        <mxCell id="78LwuEahcBiL7WYBxUG0-11" value="Evento" style="swimlane;fontStyle=0;childLayout=stackLayout;horizontal=1;startSize=26;horizontalStack=0;resizeParent=1;resizeParentMax=0;resizeLast=0;collapsible=1;marginBottom=0;labelBackgroundColor=none;" parent="1" vertex="1">
          <mxGeometry x="140" y="335" width="140" height="52" as="geometry" />
        </mxCell>
        <mxCell id="78LwuEahcBiL7WYBxUG0-12" value="informazioni" style="text;strokeColor=none;fillColor=none;align=left;verticalAlign=top;spacingLeft=4;spacingRight=4;overflow=hidden;rotatable=0;points=[[0,0.5],[1,0.5]];portConstraint=eastwest;labelBackgroundColor=none;fontColor=#000000;" parent="78LwuEahcBiL7WYBxUG0-11" vertex="1">
          <mxGeometry y="26" width="140" height="26" as="geometry" />
        </mxCell>
        <mxCell id="78LwuEahcBiL7WYBxUG0-13" value="Chef" style="swimlane;fontStyle=0;childLayout=stackLayout;horizontal=1;startSize=26;horizontalStack=0;resizeParent=1;resizeParentMax=0;resizeLast=0;collapsible=1;marginBottom=0;labelBackgroundColor=none;" parent="1" vertex="1">
          <mxGeometry x="140" y="474" width="140" height="52" as="geometry" />
        </mxCell>
        <mxCell id="78LwuEahcBiL7WYBxUG0-14" value="informazioni" style="text;strokeColor=none;fillColor=none;align=left;verticalAlign=top;spacingLeft=4;spacingRight=4;overflow=hidden;rotatable=0;points=[[0,0.5],[1,0.5]];portConstraint=eastwest;labelBackgroundColor=none;fontColor=#000000;" parent="78LwuEahcBiL7WYBxUG0-13" vertex="1">
          <mxGeometry y="26" width="140" height="26" as="geometry" />
        </mxCell>
        <mxCell id="78LwuEahcBiL7WYBxUG0-15" value="" style="endArrow=diamondThin;html=1;rounded=0;align=center;verticalAlign=top;endFill=1;labelBackgroundColor=none;endSize=18;fontColor=#0000FF;strokeColor=#0000FF;" parent="1" target="78LwuEahcBiL7WYBxUG0-2" edge="1">
          <mxGeometry relative="1" as="geometry">
            <mxPoint x="540" y="220" as="sourcePoint" />
            <mxPoint x="514" y="430" as="targetPoint" />
          </mxGeometry>
        </mxCell>
        <mxCell id="78LwuEahcBiL7WYBxUG0-16" value="1" style="resizable=0;html=1;align=left;verticalAlign=top;labelBackgroundColor=none;fontColor=#0000FF;" parent="78LwuEahcBiL7WYBxUG0-15" connectable="0" vertex="1">
          <mxGeometry x="-1" relative="1" as="geometry">
            <mxPoint x="-20" y="120" as="offset" />
          </mxGeometry>
        </mxCell>
        <mxCell id="78LwuEahcBiL7WYBxUG0-17" value="appartiene&amp;nbsp;&amp;nbsp;&lt;span style=&quot;font-family: arial, sans-serif; font-size: 16px; text-align: left;&quot;&gt;▲&lt;/span&gt;" style="resizable=0;html=1;align=right;verticalAlign=bottom;labelBackgroundColor=none;fontColor=#0000FF;strokeColor=#0000FF;" parent="78LwuEahcBiL7WYBxUG0-15" connectable="0" vertex="1">
          <mxGeometry x="1" relative="1" as="geometry">
            <mxPoint x="90" y="58" as="offset" />
          </mxGeometry>
        </mxCell>
        <mxCell id="78LwuEahcBiL7WYBxUG0-18" value="0..1" style="resizable=0;html=1;align=right;verticalAlign=top;labelBackgroundColor=none;fontColor=#0000FF;strokeColor=#0000FF;" parent="78LwuEahcBiL7WYBxUG0-15" connectable="0" vertex="1">
          <mxGeometry x="1" relative="1" as="geometry">
            <mxPoint x="-10" as="offset" />
          </mxGeometry>
        </mxCell>
        <mxCell id="78LwuEahcBiL7WYBxUG0-19" value="0..n" style="resizable=0;html=1;align=right;verticalAlign=top;labelBackgroundColor=none;fontColor=#0000FF;strokeColor=#0000FF;" parent="1" connectable="0" vertex="1">
          <mxGeometry x="530" y="190" as="geometry" />
        </mxCell>
        <mxCell id="78LwuEahcBiL7WYBxUG0-33" value="" style="endArrow=diamondThin;html=1;rounded=0;align=center;verticalAlign=top;endFill=1;labelBackgroundColor=none;endSize=18;exitX=0.5;exitY=0;exitDx=0;exitDy=0;entryX=0.593;entryY=0.007;entryDx=0;entryDy=0;entryPerimeter=0;fontColor=#0000FF;strokeColor=#0000FF;" parent="1" source="78LwuEahcBiL7WYBxUG0-1" target="78LwuEahcBiL7WYBxUG0-9" edge="1">
          <mxGeometry relative="1" as="geometry">
            <mxPoint x="360" y="132" as="sourcePoint" />
            <mxPoint x="360" y="44" as="targetPoint" />
            <Array as="points">
              <mxPoint x="540" y="40" />
              <mxPoint x="223" y="40" />
            </Array>
          </mxGeometry>
        </mxCell>
        <mxCell id="78LwuEahcBiL7WYBxUG0-34" value="0..n" style="resizable=0;html=1;align=left;verticalAlign=top;labelBackgroundColor=none;fontColor=#0000FF;strokeColor=#0000FF;" parent="78LwuEahcBiL7WYBxUG0-33" connectable="0" vertex="1">
          <mxGeometry x="-1" relative="1" as="geometry">
            <mxPoint x="10" y="-30" as="offset" />
          </mxGeometry>
        </mxCell>
        <mxCell id="78LwuEahcBiL7WYBxUG0-35" value="contiene&amp;nbsp;&lt;span style=&quot;font-family: arial, sans-serif; font-size: 16px; text-align: left;&quot;&gt;▶&lt;/span&gt;" style="resizable=0;html=1;align=right;verticalAlign=bottom;labelBackgroundColor=none;fontColor=#0000FF;strokeColor=#0000FF;" parent="78LwuEahcBiL7WYBxUG0-33" connectable="0" vertex="1">
          <mxGeometry x="1" relative="1" as="geometry">
            <mxPoint x="217" y="-41" as="offset" />
          </mxGeometry>
        </mxCell>
        <mxCell id="78LwuEahcBiL7WYBxUG0-36" value="1" style="resizable=0;html=1;align=right;verticalAlign=top;labelBackgroundColor=none;fontColor=#0000FF;strokeColor=#0000FF;" parent="78LwuEahcBiL7WYBxUG0-33" connectable="0" vertex="1">
          <mxGeometry x="1" relative="1" as="geometry">
            <mxPoint x="-10" y="-31" as="offset" />
          </mxGeometry>
        </mxCell>
        <mxCell id="78LwuEahcBiL7WYBxUG0-37" value="" style="endArrow=diamondThin;html=1;rounded=0;align=center;verticalAlign=top;endFill=1;labelBackgroundColor=none;endSize=18;exitX=-0.021;exitY=0.385;exitDx=0;exitDy=0;exitPerimeter=0;entryX=1.007;entryY=0.864;entryDx=0;entryDy=0;entryPerimeter=0;fontColor=#0000FF;strokeColor=#0000FF;" parent="1" source="78LwuEahcBiL7WYBxUG0-3" target="78LwuEahcBiL7WYBxUG0-10" edge="1">
          <mxGeometry relative="1" as="geometry">
            <mxPoint x="350" y="220" as="sourcePoint" />
            <mxPoint x="350" y="132" as="targetPoint" />
          </mxGeometry>
        </mxCell>
        <mxCell id="78LwuEahcBiL7WYBxUG0-38" value="0..n" style="resizable=0;html=1;align=left;verticalAlign=top;labelBackgroundColor=none;fontColor=#0000FF;strokeColor=#0000FF;" parent="78LwuEahcBiL7WYBxUG0-37" connectable="0" vertex="1">
          <mxGeometry x="-1" relative="1" as="geometry">
            <mxPoint x="-27" y="-29" as="offset" />
          </mxGeometry>
        </mxCell>
        <mxCell id="78LwuEahcBiL7WYBxUG0-39" value="&lt;font style=&quot;font-size: 15px&quot;&gt;◀︎&lt;/font&gt;&amp;nbsp;appartiene&amp;nbsp;" style="resizable=0;html=1;align=right;verticalAlign=bottom;labelBackgroundColor=none;fontColor=#0000FF;strokeColor=#0000FF;" parent="78LwuEahcBiL7WYBxUG0-37" connectable="0" vertex="1">
          <mxGeometry x="1" relative="1" as="geometry">
            <mxPoint x="139" y="-2" as="offset" />
          </mxGeometry>
        </mxCell>
        <mxCell id="78LwuEahcBiL7WYBxUG0-40" value="0..1" style="resizable=0;html=1;align=right;verticalAlign=top;labelBackgroundColor=none;fontColor=#0000FF;strokeColor=#0000FF;" parent="78LwuEahcBiL7WYBxUG0-37" connectable="0" vertex="1">
          <mxGeometry x="1" relative="1" as="geometry">
            <mxPoint x="29" y="-29" as="offset" />
          </mxGeometry>
        </mxCell>
        <mxCell id="78LwuEahcBiL7WYBxUG0-41" value="" style="endArrow=none;html=1;rounded=0;align=center;verticalAlign=top;endFill=0;labelBackgroundColor=none;exitX=0.493;exitY=0.962;exitDx=0;exitDy=0;exitPerimeter=0;fontColor=#0000FF;strokeColor=#0000FF;" parent="1" target="78LwuEahcBiL7WYBxUG0-11" edge="1">
          <mxGeometry relative="1" as="geometry">
            <mxPoint x="209.5" y="260.00199999999995" as="sourcePoint" />
            <mxPoint x="210" y="330" as="targetPoint" />
          </mxGeometry>
        </mxCell>
        <mxCell id="78LwuEahcBiL7WYBxUG0-42" value="0..n" style="resizable=0;html=1;align=left;verticalAlign=top;labelBackgroundColor=none;fontColor=#0000FF;strokeColor=#0000FF;" parent="78LwuEahcBiL7WYBxUG0-41" connectable="0" vertex="1">
          <mxGeometry x="-1" relative="1" as="geometry">
            <mxPoint x="-29" as="offset" />
          </mxGeometry>
        </mxCell>
        <mxCell id="78LwuEahcBiL7WYBxUG0-43" value="in uso in&amp;nbsp;&lt;span style=&quot;font-family: arial, sans-serif; font-size: 16px; text-align: left;&quot;&gt;▼&lt;/span&gt;" style="resizable=0;html=1;align=right;verticalAlign=bottom;labelBackgroundColor=none;fontColor=#0000FF;strokeColor=#0000FF;" parent="78LwuEahcBiL7WYBxUG0-41" connectable="0" vertex="1">
          <mxGeometry x="1" relative="1" as="geometry">
            <mxPoint x="70" y="-30" as="offset" />
          </mxGeometry>
        </mxCell>
        <mxCell id="78LwuEahcBiL7WYBxUG0-44" value="0..n" style="resizable=0;html=1;align=right;verticalAlign=top;labelBackgroundColor=none;fontColor=#0000FF;strokeColor=#0000FF;" parent="78LwuEahcBiL7WYBxUG0-41" connectable="0" vertex="1">
          <mxGeometry x="1" relative="1" as="geometry">
            <mxPoint x="-10" y="-25" as="offset" />
          </mxGeometry>
        </mxCell>
        <mxCell id="78LwuEahcBiL7WYBxUG0-45" value="" style="endArrow=none;html=1;rounded=0;align=center;verticalAlign=top;endFill=0;labelBackgroundColor=none;entryX=0.5;entryY=0;entryDx=0;entryDy=0;" parent="1" source="78LwuEahcBiL7WYBxUG0-12" target="78LwuEahcBiL7WYBxUG0-13" edge="1">
          <mxGeometry relative="1" as="geometry">
            <mxPoint x="210" y="410" as="sourcePoint" />
            <mxPoint x="210" y="440" as="targetPoint" />
          </mxGeometry>
        </mxCell>
        <mxCell id="78LwuEahcBiL7WYBxUG0-46" value="0..n" style="resizable=0;html=1;align=left;verticalAlign=top;labelBackgroundColor=none;" parent="78LwuEahcBiL7WYBxUG0-45" connectable="0" vertex="1">
          <mxGeometry x="-1" relative="1" as="geometry">
            <mxPoint x="-29" as="offset" />
          </mxGeometry>
        </mxCell>
        <mxCell id="78LwuEahcBiL7WYBxUG0-47" value="assegnato a&amp;nbsp;&lt;span style=&quot;color: rgb(32 , 33 , 36) ; font-family: &amp;#34;arial&amp;#34; , sans-serif ; font-size: 16px ; text-align: left&quot;&gt;▼&lt;/span&gt;" style="resizable=0;html=1;align=right;verticalAlign=bottom;labelBackgroundColor=none;" parent="78LwuEahcBiL7WYBxUG0-45" connectable="0" vertex="1">
          <mxGeometry x="1" relative="1" as="geometry">
            <mxPoint x="90" y="-30" as="offset" />
          </mxGeometry>
        </mxCell>
        <mxCell id="78LwuEahcBiL7WYBxUG0-48" value="0..1" style="resizable=0;html=1;align=right;verticalAlign=top;labelBackgroundColor=none;" parent="78LwuEahcBiL7WYBxUG0-45" connectable="0" vertex="1">
          <mxGeometry x="1" relative="1" as="geometry">
            <mxPoint x="-10" y="-25" as="offset" />
          </mxGeometry>
        </mxCell>
        <mxCell id="anGM7aMK89ea6Gd5aUln-1" value="Servizio" style="swimlane;fontStyle=0;align=center;verticalAlign=top;childLayout=stackLayout;horizontal=1;startSize=26;horizontalStack=0;resizeParent=1;resizeLast=0;collapsible=1;marginBottom=0;rounded=0;shadow=0;strokeWidth=1;" vertex="1" parent="1">
          <mxGeometry x="-153.66999999999996" y="80" width="160" height="160" as="geometry">
            <mxRectangle x="550" y="140" width="160" height="26" as="alternateBounds" />
          </mxGeometry>
        </mxCell>
        <mxCell id="anGM7aMK89ea6Gd5aUln-2" value="1" style="resizable=0;align=right;verticalAlign=bottom;labelBackgroundColor=none;fontSize=12;" connectable="0" vertex="1" parent="1">
          <mxGeometry x="-160.00333333333344" y="163.66666666666663" as="geometry" />
        </mxCell>
        <mxCell id="anGM7aMK89ea6Gd5aUln-3" style="edgeStyle=orthogonalEdgeStyle;rounded=0;orthogonalLoop=1;jettySize=auto;html=1;entryX=1;entryY=0.5;entryDx=0;entryDy=0;" edge="1" parent="1" source="78LwuEahcBiL7WYBxUG0-10" target="anGM7aMK89ea6Gd5aUln-1">
          <mxGeometry relative="1" as="geometry">
            <Array as="points">
              <mxPoint x="100" y="160" />
              <mxPoint x="100" y="160" />
            </Array>
          </mxGeometry>
        </mxCell>
        <mxCell id="anGM7aMK89ea6Gd5aUln-4" value="In uso in" style="text;html=1;strokeColor=none;fillColor=none;align=center;verticalAlign=middle;whiteSpace=wrap;rounded=0;" vertex="1" parent="1">
          <mxGeometry x="50" y="132" width="50" height="20" as="geometry" />
        </mxCell>
        <mxCell id="anGM7aMK89ea6Gd5aUln-5" value="" style="triangle;whiteSpace=wrap;html=1;rotation=-180;fillColor=#dae8fc;strokeColor=#6c8ebf;" vertex="1" parent="1">
          <mxGeometry x="40" y="132" width="10" height="20" as="geometry" />
        </mxCell>
        <mxCell id="anGM7aMK89ea6Gd5aUln-6" value="0...n" style="text;html=1;strokeColor=none;fillColor=none;align=center;verticalAlign=middle;whiteSpace=wrap;rounded=0;" vertex="1" parent="1">
          <mxGeometry x="6.33" y="137.5" width="33.67" height="9" as="geometry" />
        </mxCell>
        <mxCell id="anGM7aMK89ea6Gd5aUln-7" value="0..1" style="text;html=1;strokeColor=none;fillColor=none;align=center;verticalAlign=middle;whiteSpace=wrap;rounded=0;" vertex="1" parent="1">
          <mxGeometry x="90" y="132" width="50" height="18" as="geometry" />
        </mxCell>
        <mxCell id="anGM7aMK89ea6Gd5aUln-9" style="edgeStyle=orthogonalEdgeStyle;rounded=0;orthogonalLoop=1;jettySize=auto;html=1;entryX=0.5;entryY=1;entryDx=0;entryDy=0;" edge="1" parent="1" source="78LwuEahcBiL7WYBxUG0-12" target="anGM7aMK89ea6Gd5aUln-1">
          <mxGeometry relative="1" as="geometry" />
        </mxCell>
        <mxCell id="anGM7aMK89ea6Gd5aUln-10" value="Prevede" style="text;html=1;strokeColor=none;fillColor=none;align=center;verticalAlign=middle;whiteSpace=wrap;rounded=0;" vertex="1" parent="1">
          <mxGeometry x="-20" y="340" width="60" height="30" as="geometry" />
        </mxCell>
        <mxCell id="anGM7aMK89ea6Gd5aUln-11" value="0..n" style="text;html=1;strokeColor=none;fillColor=none;align=center;verticalAlign=middle;whiteSpace=wrap;rounded=0;" vertex="1" parent="1">
          <mxGeometry x="-70" y="250" width="60" height="30" as="geometry" />
        </mxCell>
        <mxCell id="anGM7aMK89ea6Gd5aUln-12" value="1..1" style="text;html=1;strokeColor=none;fillColor=none;align=center;verticalAlign=middle;whiteSpace=wrap;rounded=0;" vertex="1" parent="1">
          <mxGeometry x="70" y="340" width="60" height="30" as="geometry" />
        </mxCell>
        <mxCell id="anGM7aMK89ea6Gd5aUln-14" value="" style="triangle;whiteSpace=wrap;html=1;rotation=-180;fillColor=#dae8fc;strokeColor=#6c8ebf;" vertex="1" parent="1">
          <mxGeometry x="-30" y="345" width="10" height="20" as="geometry" />
        </mxCell>
        <mxCell id="anGM7aMK89ea6Gd5aUln-20" style="edgeStyle=orthogonalEdgeStyle;rounded=0;orthogonalLoop=1;jettySize=auto;html=1;entryX=0.5;entryY=0;entryDx=0;entryDy=0;" edge="1" parent="1" source="anGM7aMK89ea6Gd5aUln-15" target="anGM7aMK89ea6Gd5aUln-19">
          <mxGeometry relative="1" as="geometry">
            <Array as="points">
              <mxPoint x="840" y="510" />
            </Array>
          </mxGeometry>
        </mxCell>
        <mxCell id="anGM7aMK89ea6Gd5aUln-15" value="Compito" style="swimlane;fontStyle=0;align=center;verticalAlign=top;childLayout=stackLayout;horizontal=1;startSize=26;horizontalStack=0;resizeParent=1;resizeLast=0;collapsible=1;marginBottom=0;rounded=0;shadow=0;strokeWidth=1;" vertex="1" parent="1">
          <mxGeometry x="760" y="241" width="160" height="146" as="geometry">
            <mxRectangle x="340" y="380" width="170" height="26" as="alternateBounds" />
          </mxGeometry>
        </mxCell>
        <mxCell id="anGM7aMK89ea6Gd5aUln-16" value="Stima tempo: testo" style="text;html=1;align=center;verticalAlign=middle;resizable=0;points=[];autosize=1;strokeColor=none;fillColor=none;" vertex="1" parent="anGM7aMK89ea6Gd5aUln-15">
          <mxGeometry y="26" width="160" height="30" as="geometry" />
        </mxCell>
        <mxCell id="anGM7aMK89ea6Gd5aUln-17" value="Quantità/porzioni: testo" style="text;html=1;align=center;verticalAlign=middle;resizable=0;points=[];autosize=1;strokeColor=none;fillColor=none;" vertex="1" parent="anGM7aMK89ea6Gd5aUln-15">
          <mxGeometry y="56" width="160" height="30" as="geometry" />
        </mxCell>
        <mxCell id="anGM7aMK89ea6Gd5aUln-39" value="Da preparare : sì\no" style="text;html=1;strokeColor=none;fillColor=none;align=center;verticalAlign=middle;whiteSpace=wrap;rounded=0;" vertex="1" parent="anGM7aMK89ea6Gd5aUln-15">
          <mxGeometry y="86" width="160" height="30" as="geometry" />
        </mxCell>
        <mxCell id="anGM7aMK89ea6Gd5aUln-43" style="edgeStyle=orthogonalEdgeStyle;rounded=0;orthogonalLoop=1;jettySize=auto;html=1;" edge="1" parent="anGM7aMK89ea6Gd5aUln-15" source="anGM7aMK89ea6Gd5aUln-15">
          <mxGeometry relative="1" as="geometry">
            <mxPoint x="140" y="-1" as="targetPoint" />
            <Array as="points">
              <mxPoint x="80" y="-101" />
              <mxPoint x="140" y="-101" />
            </Array>
          </mxGeometry>
        </mxCell>
        <mxCell id="anGM7aMK89ea6Gd5aUln-25" style="edgeStyle=orthogonalEdgeStyle;rounded=0;orthogonalLoop=1;jettySize=auto;html=1;entryX=0.5;entryY=1;entryDx=0;entryDy=0;" edge="1" parent="1" source="anGM7aMK89ea6Gd5aUln-19" target="anGM7aMK89ea6Gd5aUln-24">
          <mxGeometry relative="1" as="geometry" />
        </mxCell>
        <mxCell id="anGM7aMK89ea6Gd5aUln-19" value="Cuoco" style="swimlane;fontStyle=0;childLayout=stackLayout;horizontal=1;startSize=26;fillColor=none;horizontalStack=0;resizeParent=1;resizeParentMax=0;resizeLast=0;collapsible=1;marginBottom=0;whiteSpace=wrap;html=1;" vertex="1" parent="1">
          <mxGeometry x="780" y="510" width="140" height="52" as="geometry" />
        </mxCell>
        <mxCell id="anGM7aMK89ea6Gd5aUln-21" value="Svolto da" style="text;html=1;strokeColor=none;fillColor=none;align=center;verticalAlign=middle;whiteSpace=wrap;rounded=0;" vertex="1" parent="1">
          <mxGeometry x="850" y="430" width="60" height="30" as="geometry" />
        </mxCell>
        <mxCell id="anGM7aMK89ea6Gd5aUln-22" value="0..1" style="text;html=1;strokeColor=none;fillColor=none;align=center;verticalAlign=middle;whiteSpace=wrap;rounded=0;" vertex="1" parent="1">
          <mxGeometry x="850" y="480" width="60" height="30" as="geometry" />
        </mxCell>
        <mxCell id="anGM7aMK89ea6Gd5aUln-23" value="0..n" style="text;html=1;strokeColor=none;fillColor=none;align=center;verticalAlign=middle;whiteSpace=wrap;rounded=0;" vertex="1" parent="1">
          <mxGeometry x="850" y="387" width="60" height="30" as="geometry" />
        </mxCell>
        <mxCell id="anGM7aMK89ea6Gd5aUln-63" style="edgeStyle=orthogonalEdgeStyle;rounded=0;orthogonalLoop=1;jettySize=auto;html=1;entryX=0.5;entryY=0;entryDx=0;entryDy=0;" edge="1" parent="1" source="anGM7aMK89ea6Gd5aUln-24" target="anGM7aMK89ea6Gd5aUln-62">
          <mxGeometry relative="1" as="geometry" />
        </mxCell>
        <mxCell id="anGM7aMK89ea6Gd5aUln-24" value="Turno" style="swimlane;fontStyle=0;childLayout=stackLayout;horizontal=1;startSize=26;fillColor=none;horizontalStack=0;resizeParent=1;resizeParentMax=0;resizeLast=0;collapsible=1;marginBottom=0;whiteSpace=wrap;html=1;" vertex="1" parent="1">
          <mxGeometry x="1030" y="378" width="140" height="52" as="geometry" />
        </mxCell>
        <mxCell id="anGM7aMK89ea6Gd5aUln-26" style="edgeStyle=orthogonalEdgeStyle;rounded=0;orthogonalLoop=1;jettySize=auto;html=1;entryX=0.5;entryY=0;entryDx=0;entryDy=0;" edge="1" parent="1" source="anGM7aMK89ea6Gd5aUln-17" target="anGM7aMK89ea6Gd5aUln-24">
          <mxGeometry relative="1" as="geometry" />
        </mxCell>
        <mxCell id="anGM7aMK89ea6Gd5aUln-27" value="Svolto durante un" style="text;html=1;strokeColor=none;fillColor=none;align=center;verticalAlign=middle;whiteSpace=wrap;rounded=0;" vertex="1" parent="1">
          <mxGeometry x="1100" y="293" width="100" height="30" as="geometry" />
        </mxCell>
        <mxCell id="anGM7aMK89ea6Gd5aUln-28" value="" style="triangle;whiteSpace=wrap;html=1;rotation=90;fillColor=#dae8fc;strokeColor=#6c8ebf;" vertex="1" parent="1">
          <mxGeometry x="1144" y="314" width="10" height="20" as="geometry" />
        </mxCell>
        <mxCell id="anGM7aMK89ea6Gd5aUln-31" value="0..1" style="text;html=1;strokeColor=none;fillColor=none;align=center;verticalAlign=middle;whiteSpace=wrap;rounded=0;" vertex="1" parent="1">
          <mxGeometry x="1104" y="346" width="50" height="30" as="geometry" />
        </mxCell>
        <mxCell id="anGM7aMK89ea6Gd5aUln-33" value="0..n" style="text;html=1;strokeColor=none;fillColor=none;align=center;verticalAlign=middle;whiteSpace=wrap;rounded=0;" vertex="1" parent="1">
          <mxGeometry x="940" y="272" width="60" height="30" as="geometry" />
        </mxCell>
        <mxCell id="anGM7aMK89ea6Gd5aUln-34" value="Disponibilità" style="text;html=1;strokeColor=none;fillColor=none;align=center;verticalAlign=middle;whiteSpace=wrap;rounded=0;" vertex="1" parent="1">
          <mxGeometry x="1020" y="540" width="60" height="30" as="geometry" />
        </mxCell>
        <mxCell id="anGM7aMK89ea6Gd5aUln-35" value="" style="triangle;whiteSpace=wrap;html=1;rotation=0;fillColor=#dae8fc;strokeColor=#6c8ebf;" vertex="1" parent="1">
          <mxGeometry x="1090" y="545" width="10" height="20" as="geometry" />
        </mxCell>
        <mxCell id="anGM7aMK89ea6Gd5aUln-36" value="0..n" style="text;html=1;strokeColor=none;fillColor=none;align=center;verticalAlign=middle;whiteSpace=wrap;rounded=0;" vertex="1" parent="1">
          <mxGeometry x="1100" y="430" width="60" height="30" as="geometry" />
        </mxCell>
        <mxCell id="anGM7aMK89ea6Gd5aUln-37" value="0..n" style="text;html=1;strokeColor=none;fillColor=none;align=center;verticalAlign=middle;whiteSpace=wrap;rounded=0;" vertex="1" parent="1">
          <mxGeometry x="920" y="535" width="60" height="30" as="geometry" />
        </mxCell>
        <mxCell id="anGM7aMK89ea6Gd5aUln-38" value="" style="triangle;whiteSpace=wrap;html=1;rotation=90;fillColor=#dae8fc;strokeColor=#6c8ebf;" vertex="1" parent="1">
          <mxGeometry x="875" y="450" width="10" height="20" as="geometry" />
        </mxCell>
        <mxCell id="anGM7aMK89ea6Gd5aUln-42" value="&lt;h1&gt;Business Rules&lt;br&gt;&lt;/h1&gt;&lt;p&gt;-Se l&#39;attributo &quot;Da Preparare&quot; di un compito vale sì, allora questo non è associato ad alcun cuoco e turno&lt;br&gt;&lt;/p&gt;&lt;div&gt;&lt;br&gt;&lt;/div&gt;&lt;div&gt;-Se l&#39;attributo &quot;Completato&quot; di un compito vale sì, allora quest&#39;ultimo è associato ad un cuoco ed un turno&lt;/div&gt;&lt;div&gt;&lt;br&gt;&lt;/div&gt;&lt;div&gt;-Un compito non può essere prosecuzione di se stesso&lt;br&gt;&lt;/div&gt;&lt;div&gt;&lt;br&gt;&lt;/div&gt;&lt;div&gt;-Se un compito c&#39; è prosecuzione di un altro compito c, allora c&#39; deve essere svolto durante un turno successivo a quello a cui è associato c&#39;&lt;/div&gt;&lt;div&gt;&lt;br&gt;&lt;/div&gt;&lt;div&gt;-Un preparazione non può essere ingrediente di se stessa&lt;/div&gt;&lt;div&gt;&lt;br&gt;&lt;/div&gt;&lt;div&gt;-Se il compito c è svolto durante il turno t, allora c deve essere solvto da un cuoco cu disponibile in c&lt;br&gt;&lt;/div&gt;" style="text;html=1;strokeColor=none;fillColor=none;spacing=5;spacingTop=-20;whiteSpace=wrap;overflow=hidden;rounded=0;" vertex="1" parent="1">
          <mxGeometry x="1060" y="11" width="450" height="279" as="geometry" />
        </mxCell>
        <mxCell id="anGM7aMK89ea6Gd5aUln-44" value="Prosecuzione di" style="text;html=1;strokeColor=none;fillColor=none;align=center;verticalAlign=middle;whiteSpace=wrap;rounded=0;" vertex="1" parent="1">
          <mxGeometry x="830" y="102" width="90" height="30" as="geometry" />
        </mxCell>
        <mxCell id="anGM7aMK89ea6Gd5aUln-45" value="0..1" style="text;html=1;strokeColor=none;fillColor=none;align=center;verticalAlign=middle;whiteSpace=wrap;rounded=0;" vertex="1" parent="1">
          <mxGeometry x="767" y="190" width="60" height="30" as="geometry" />
        </mxCell>
        <mxCell id="anGM7aMK89ea6Gd5aUln-46" value="0..1" style="text;html=1;strokeColor=none;fillColor=none;align=center;verticalAlign=middle;whiteSpace=wrap;rounded=0;" vertex="1" parent="1">
          <mxGeometry x="900" y="190" width="60" height="30" as="geometry" />
        </mxCell>
        <mxCell id="anGM7aMK89ea6Gd5aUln-57" style="edgeStyle=orthogonalEdgeStyle;rounded=0;orthogonalLoop=1;jettySize=auto;html=1;" edge="1" parent="1" source="anGM7aMK89ea6Gd5aUln-47">
          <mxGeometry relative="1" as="geometry">
            <mxPoint x="-120" y="240" as="targetPoint" />
          </mxGeometry>
        </mxCell>
        <mxCell id="anGM7aMK89ea6Gd5aUln-47" value="Foglio Riepilogativo" style="swimlane;fontStyle=2;align=center;verticalAlign=top;childLayout=stackLayout;horizontal=1;startSize=26;horizontalStack=0;resizeParent=1;resizeLast=0;collapsible=1;marginBottom=0;rounded=0;shadow=0;strokeWidth=1;" vertex="1" parent="1">
          <mxGeometry x="610" y="670" width="160" height="164" as="geometry">
            <mxRectangle x="230" y="140" width="160" height="26" as="alternateBounds" />
          </mxGeometry>
        </mxCell>
        <mxCell id="anGM7aMK89ea6Gd5aUln-48" value="1" style="resizable=0;align=left;verticalAlign=bottom;labelBackgroundColor=none;fontSize=12;" connectable="0" vertex="1" parent="1">
          <mxGeometry x="180" y="93.66666666666663" as="geometry" />
        </mxCell>
        <mxCell id="anGM7aMK89ea6Gd5aUln-49" style="edgeStyle=orthogonalEdgeStyle;rounded=0;orthogonalLoop=1;jettySize=auto;html=1;entryX=0.5;entryY=0;entryDx=0;entryDy=0;startArrow=none;startFill=0;endArrow=diamondThin;endFill=1;" edge="1" parent="1" target="anGM7aMK89ea6Gd5aUln-47">
          <mxGeometry relative="1" as="geometry">
            <mxPoint x="690" y="650" as="targetPoint" />
            <mxPoint x="760" y="342" as="sourcePoint" />
            <Array as="points">
              <mxPoint x="690" y="342" />
            </Array>
          </mxGeometry>
        </mxCell>
        <mxCell id="anGM7aMK89ea6Gd5aUln-50" value="Composto da" style="text;html=1;strokeColor=none;fillColor=none;align=center;verticalAlign=middle;whiteSpace=wrap;rounded=0;" vertex="1" parent="1">
          <mxGeometry x="690" y="560" width="80" height="30" as="geometry" />
        </mxCell>
        <mxCell id="anGM7aMK89ea6Gd5aUln-51" value="0..n" style="text;html=1;strokeColor=none;fillColor=none;align=center;verticalAlign=middle;whiteSpace=wrap;rounded=0;" vertex="1" parent="1">
          <mxGeometry x="700" y="348" width="60" height="30" as="geometry" />
        </mxCell>
        <mxCell id="anGM7aMK89ea6Gd5aUln-52" value="1" style="text;html=1;strokeColor=none;fillColor=none;align=center;verticalAlign=middle;whiteSpace=wrap;rounded=0;" vertex="1" parent="1">
          <mxGeometry x="690" y="630" width="60" height="30" as="geometry" />
        </mxCell>
        <mxCell id="anGM7aMK89ea6Gd5aUln-53" value="" style="triangle;whiteSpace=wrap;html=1;rotation=-90;fillColor=#dae8fc;strokeColor=#6c8ebf;" vertex="1" parent="1">
          <mxGeometry x="715" y="545" width="10" height="20" as="geometry" />
        </mxCell>
        <mxCell id="anGM7aMK89ea6Gd5aUln-58" value="Contiene compiti di" style="text;html=1;strokeColor=none;fillColor=none;align=center;verticalAlign=middle;whiteSpace=wrap;rounded=0;" vertex="1" parent="1">
          <mxGeometry x="160" y="710" width="150" height="30" as="geometry" />
        </mxCell>
        <mxCell id="anGM7aMK89ea6Gd5aUln-59" value="" style="triangle;whiteSpace=wrap;html=1;rotation=-180;fillColor=#dae8fc;strokeColor=#6c8ebf;" vertex="1" parent="1">
          <mxGeometry x="160" y="715" width="10" height="20" as="geometry" />
        </mxCell>
        <mxCell id="anGM7aMK89ea6Gd5aUln-60" value="1" style="text;html=1;strokeColor=none;fillColor=none;align=center;verticalAlign=middle;whiteSpace=wrap;rounded=0;" vertex="1" parent="1">
          <mxGeometry x="-180" y="242" width="60" height="30" as="geometry" />
        </mxCell>
        <mxCell id="anGM7aMK89ea6Gd5aUln-61" value="0..1" style="text;html=1;strokeColor=none;fillColor=none;align=center;verticalAlign=middle;whiteSpace=wrap;rounded=0;" vertex="1" parent="1">
          <mxGeometry x="540" y="715" width="60" height="30" as="geometry" />
        </mxCell>
        <mxCell id="anGM7aMK89ea6Gd5aUln-62" value="Tabellone Turni" style="swimlane;fontStyle=0;childLayout=stackLayout;horizontal=1;startSize=26;fillColor=none;horizontalStack=0;resizeParent=1;resizeParentMax=0;resizeLast=0;collapsible=1;marginBottom=0;whiteSpace=wrap;html=1;" vertex="1" parent="1">
          <mxGeometry x="1330" y="448" width="140" height="52" as="geometry" />
        </mxCell>
        <mxCell id="anGM7aMK89ea6Gd5aUln-64" value="Composto da" style="text;html=1;strokeColor=none;fillColor=none;align=center;verticalAlign=middle;whiteSpace=wrap;rounded=0;" vertex="1" parent="1">
          <mxGeometry x="1290" y="370" width="90" height="30" as="geometry" />
        </mxCell>
        <mxCell id="anGM7aMK89ea6Gd5aUln-70" value="" style="triangle;whiteSpace=wrap;html=1;rotation=-180;fillColor=#dae8fc;strokeColor=#6c8ebf;" vertex="1" parent="1">
          <mxGeometry x="1270" y="375" width="10" height="20" as="geometry" />
        </mxCell>
        <mxCell id="anGM7aMK89ea6Gd5aUln-71" value="0..n" style="text;html=1;strokeColor=none;fillColor=none;align=center;verticalAlign=middle;whiteSpace=wrap;rounded=0;" vertex="1" parent="1">
          <mxGeometry x="1180" y="378" width="40" height="20" as="geometry" />
        </mxCell>
        <mxCell id="anGM7aMK89ea6Gd5aUln-72" value="1" style="text;html=1;strokeColor=none;fillColor=none;align=center;verticalAlign=middle;whiteSpace=wrap;rounded=0;" vertex="1" parent="1">
          <mxGeometry x="1400" y="420" width="40" height="20" as="geometry" />
        </mxCell>
        <mxCell id="anGM7aMK89ea6Gd5aUln-78" style="edgeStyle=orthogonalEdgeStyle;rounded=0;orthogonalLoop=1;jettySize=auto;html=1;entryX=1;entryY=0.5;entryDx=0;entryDy=0;" edge="1" parent="1" source="anGM7aMK89ea6Gd5aUln-73" target="78LwuEahcBiL7WYBxUG0-8">
          <mxGeometry relative="1" as="geometry">
            <Array as="points">
              <mxPoint x="80" y="616" />
            </Array>
          </mxGeometry>
        </mxCell>
        <mxCell id="anGM7aMK89ea6Gd5aUln-73" value="Mansione di Cucina" style="swimlane;fontStyle=0;childLayout=stackLayout;horizontal=1;startSize=26;horizontalStack=0;resizeParent=1;resizeParentMax=0;resizeLast=0;collapsible=1;marginBottom=0;labelBackgroundColor=none;" vertex="1" parent="1">
          <mxGeometry x="274" y="590" width="140" height="52" as="geometry" />
        </mxCell>
        <mxCell id="anGM7aMK89ea6Gd5aUln-76" value="Si trova in" style="text;html=1;strokeColor=none;fillColor=none;align=center;verticalAlign=middle;whiteSpace=wrap;rounded=0;" vertex="1" parent="1">
          <mxGeometry x="160" y="615" width="60" height="30" as="geometry" />
        </mxCell>
        <mxCell id="anGM7aMK89ea6Gd5aUln-77" value="" style="triangle;whiteSpace=wrap;html=1;rotation=-180;fillColor=#dae8fc;strokeColor=#6c8ebf;" vertex="1" parent="1">
          <mxGeometry x="140" y="620" width="10" height="20" as="geometry" />
        </mxCell>
        <mxCell id="anGM7aMK89ea6Gd5aUln-80" value="1" style="text;html=1;strokeColor=none;fillColor=none;align=center;verticalAlign=middle;whiteSpace=wrap;rounded=0;" vertex="1" parent="1">
          <mxGeometry x="85" y="590" width="60" height="30" as="geometry" />
        </mxCell>
        <mxCell id="anGM7aMK89ea6Gd5aUln-81" value="0..n" style="text;html=1;strokeColor=none;fillColor=none;align=center;verticalAlign=middle;whiteSpace=wrap;rounded=0;" vertex="1" parent="1">
          <mxGeometry x="205" y="585" width="60" height="30" as="geometry" />
        </mxCell>
        <mxCell id="anGM7aMK89ea6Gd5aUln-84" value="0..1" style="resizable=0;html=1;align=right;verticalAlign=top;labelBackgroundColor=none;" connectable="0" vertex="1" parent="1">
          <mxGeometry x="550.0000727228321" y="474.00660352997784" as="geometry" />
        </mxCell>
        <mxCell id="anGM7aMK89ea6Gd5aUln-96" style="edgeStyle=orthogonalEdgeStyle;rounded=0;orthogonalLoop=1;jettySize=auto;html=1;entryX=1;entryY=0;entryDx=0;entryDy=0;endArrow=diamondThin;endFill=1;startArrow=none;startFill=0;" edge="1" parent="1" source="anGM7aMK89ea6Gd5aUln-85" target="anGM7aMK89ea6Gd5aUln-73">
          <mxGeometry relative="1" as="geometry" />
        </mxCell>
        <mxCell id="anGM7aMK89ea6Gd5aUln-85" value="Preparazione" style="swimlane;fontStyle=0;childLayout=stackLayout;horizontal=1;startSize=26;horizontalStack=0;resizeParent=1;resizeParentMax=0;resizeLast=0;collapsible=1;marginBottom=0;labelBackgroundColor=none;" vertex="1" parent="1">
          <mxGeometry x="470" y="474" width="140" height="52" as="geometry" />
        </mxCell>
        <mxCell id="anGM7aMK89ea6Gd5aUln-87" value="" style="endArrow=block;endSize=16;endFill=0;html=1;rounded=0;exitX=0;exitY=0.5;exitDx=0;exitDy=0;" edge="1" parent="1" source="78LwuEahcBiL7WYBxUG0-6" target="anGM7aMK89ea6Gd5aUln-73">
          <mxGeometry width="160" relative="1" as="geometry">
            <mxPoint x="380" y="430" as="sourcePoint" />
            <mxPoint x="400" y="580" as="targetPoint" />
            <Array as="points">
              <mxPoint x="344" y="399" />
            </Array>
          </mxGeometry>
        </mxCell>
        <mxCell id="anGM7aMK89ea6Gd5aUln-90" value="" style="endArrow=none;endFill=0;endSize=12;html=1;rounded=0;startArrow=none;startFill=0;exitX=0.5;exitY=0;exitDx=0;exitDy=0;" edge="1" parent="1" source="anGM7aMK89ea6Gd5aUln-85">
          <mxGeometry width="160" relative="1" as="geometry">
            <mxPoint x="540" y="470" as="sourcePoint" />
            <mxPoint x="340" y="440" as="targetPoint" />
            <Array as="points">
              <mxPoint x="540" y="440" />
              <mxPoint x="440" y="440" />
            </Array>
          </mxGeometry>
        </mxCell>
        <mxCell id="anGM7aMK89ea6Gd5aUln-91" style="edgeStyle=orthogonalEdgeStyle;rounded=0;orthogonalLoop=1;jettySize=auto;html=1;entryX=1;entryY=0.5;entryDx=0;entryDy=0;" edge="1" parent="1" source="anGM7aMK89ea6Gd5aUln-17" target="anGM7aMK89ea6Gd5aUln-73">
          <mxGeometry relative="1" as="geometry">
            <Array as="points">
              <mxPoint x="660" y="312" />
              <mxPoint x="660" y="616" />
            </Array>
          </mxGeometry>
        </mxCell>
        <mxCell id="anGM7aMK89ea6Gd5aUln-92" value="Consiste in" style="text;html=1;strokeColor=none;fillColor=none;align=center;verticalAlign=middle;whiteSpace=wrap;rounded=0;" vertex="1" parent="1">
          <mxGeometry x="500" y="620" width="80" height="30" as="geometry" />
        </mxCell>
        <mxCell id="anGM7aMK89ea6Gd5aUln-93" value="" style="triangle;whiteSpace=wrap;html=1;rotation=-180;fillColor=#dae8fc;strokeColor=#6c8ebf;" vertex="1" parent="1">
          <mxGeometry x="490" y="625" width="10" height="20" as="geometry" />
        </mxCell>
        <mxCell id="anGM7aMK89ea6Gd5aUln-94" value="0..n" style="text;html=1;strokeColor=none;fillColor=none;align=center;verticalAlign=middle;whiteSpace=wrap;rounded=0;" vertex="1" parent="1">
          <mxGeometry x="420" y="625" width="60" height="30" as="geometry" />
        </mxCell>
        <mxCell id="anGM7aMK89ea6Gd5aUln-95" value="1" style="text;html=1;strokeColor=none;fillColor=none;align=center;verticalAlign=middle;whiteSpace=wrap;rounded=0;" vertex="1" parent="1">
          <mxGeometry x="700" y="280" width="60" height="30" as="geometry" />
        </mxCell>
        <mxCell id="anGM7aMK89ea6Gd5aUln-97" value="Ingrediente in" style="text;html=1;strokeColor=none;fillColor=none;align=center;verticalAlign=middle;whiteSpace=wrap;rounded=0;" vertex="1" parent="1">
          <mxGeometry x="420" y="540" width="90" height="30" as="geometry" />
        </mxCell>
        <mxCell id="anGM7aMK89ea6Gd5aUln-98" value="0..n" style="text;html=1;strokeColor=none;fillColor=none;align=center;verticalAlign=middle;whiteSpace=wrap;rounded=0;" vertex="1" parent="1">
          <mxGeometry x="410" y="470" width="60" height="30" as="geometry" />
        </mxCell>
        <mxCell id="anGM7aMK89ea6Gd5aUln-99" value="0..n" style="text;html=1;strokeColor=none;fillColor=none;align=center;verticalAlign=middle;whiteSpace=wrap;rounded=0;" vertex="1" parent="1">
          <mxGeometry x="410" y="570" width="60" height="30" as="geometry" />
        </mxCell>
        <mxCell id="anGM7aMK89ea6Gd5aUln-102" style="edgeStyle=orthogonalEdgeStyle;rounded=0;orthogonalLoop=1;jettySize=auto;html=1;entryX=0;entryY=0.75;entryDx=0;entryDy=0;" edge="1" parent="1" source="78LwuEahcBiL7WYBxUG0-14" target="anGM7aMK89ea6Gd5aUln-47">
          <mxGeometry relative="1" as="geometry">
            <Array as="points">
              <mxPoint x="-210" y="513" />
              <mxPoint x="-210" y="793" />
            </Array>
          </mxGeometry>
        </mxCell>
        <mxCell id="anGM7aMK89ea6Gd5aUln-103" value="Possesso di" style="text;html=1;strokeColor=none;fillColor=none;align=center;verticalAlign=middle;whiteSpace=wrap;rounded=0;" vertex="1" parent="1">
          <mxGeometry x="182.5" y="804" width="105" height="30" as="geometry" />
        </mxCell>
        <mxCell id="anGM7aMK89ea6Gd5aUln-104" value="0..n" style="text;html=1;strokeColor=none;fillColor=none;align=center;verticalAlign=middle;whiteSpace=wrap;rounded=0;" vertex="1" parent="1">
          <mxGeometry x="70" y="470" width="60" height="30" as="geometry" />
        </mxCell>
        <mxCell id="anGM7aMK89ea6Gd5aUln-105" value="1" style="text;html=1;strokeColor=none;fillColor=none;align=center;verticalAlign=middle;whiteSpace=wrap;rounded=0;" vertex="1" parent="1">
          <mxGeometry x="540" y="800" width="60" height="30" as="geometry" />
        </mxCell>
      </root>
    </mxGraphModel>
  </diagram>
</mxfile>
